# xmcd
#
# Track frame offsets: 
#        150
#        14106
#        24643
#        38509
#        57486
#        77329
#        92709
#        111488
#        130399
#        144053
#        160546
#        173597
#        187053
#        206211
#        222835
#        239704
#        257743
#        274432
#        292179
#
# Disc length: 4122 seconds
#
# Revision: 0
# Processed by: cddbd v1.5.2PL0 Copyright (c) Steve Scherf et al.
# Submitted via: ExactAudioCopy v0.95b3
#
DISCID=20101813
DTITLE=Va  - Capitol Records 50th Anniversary 1942-1992 - Disc 5
DYEAR=1900
DGENRE=
TTITLE0=Glen Campbell - Witchita Lineman
TTITLE1=The Lettermen - Hurts So Bad
TTITLE2=The Beatles - Something
TTITLE3=Joe South - Walk A Mile In My Shoes
TTITLE4=Linda Ronstadt - Long Long Time
TTITLE5=Helen Reddy - I Am Woman
TTITLE6=Skylark - Wildflower
TTITLE7=Paul McCartney and Wings - My Love
TTITLE8=Glen Campbell - Southern Nights
TTITLE9=Anne Murray - You Needed Me
TTITLE10=Bob Welch - Sentimental Lady
TTITLE11=Dr. Hook - When You're In Love With A Bea
TTITLE12=Little River Band - Reminiscing
TTITLE13=Neil Diamond - Love On The Rocks
TTITLE14=A Taste Of Honey - Sukiyaki
TTITLE15=America - You Can Do Magic
TTITLE16=Heart - Alone
TTITLE17=Sheriff - When I'm With You
TTITLE18=Bonnie Raitt - Something To Talk About
EXTD=
EXTT0=
EXTT1=
EXTT2=
EXTT3=
EXTT4=
EXTT5=
EXTT6=
EXTT7=
EXTT8=
EXTT9=
EXTT10=
EXTT11=
EXTT12=
EXTT13=
EXTT14=
EXTT15=
EXTT16=
EXTT17=
EXTT18=
PLAYORDER=
